<?xml version="1.0" encoding="utf-8"?>
<!-- Generator: Adobe Illustrator 22.0.1, SVG Export Plug-In . SVG Version: 6.00 Build 0)  -->
<svg xmlns="http://www.w3.org/2000/svg" xmlns:xlink="http://www.w3.org/1999/xlink" version="1.1" id="Layer_1" x="0px" y="0px" viewBox="0 0 1920 1080" style="enable-background:new 0 0 1920 1080;" xml:space="preserve">
<style type="text/css">
	.st0{fill:#FFFFFF;}
	.st1{fill:#5C00D3;}
	.st2{font-family:'GorditaBold';}
	.st3{font-size:54.9149px;}
	.st4{fill:#FFEDD2;}
	.st5{fill:#FCC365;}
	.st6{fill:#00CE7C;}
	.st7{fill:#FFE800;}
	.st8{fill:#9164CC;}
	.st9{fill:#282828;stroke:#FFFFFF;stroke-miterlimit:10;}
	.st10{fill:none;}
	.st11{font-family:'GorditaRegular';}
	.st12{font-size:18px;}
	.st13{fill:#39E28D;}
	.st14{font-family:'GorditaMedium';}
	.st15{font-size:24px;}
	.st16{fill:#47B877;}
	.st17{fill:#7C00FF;}
</style>
<path class="st1" d="M1923,390.9c-38.6-33.4-107.1-71.5-220-74.9c-132.8-3.9-207.1,131.1-261,180c-53.9,48.9-110.8,112.2-255,136  c-182,30-274,135-351,276c-81,148.3-320,85-462,87c-81.5,1.1-138,47.5-170.2,87H1923V390.9z"/>
<text transform="matrix(1 0 0 1 1162.9648 867.9561)"><tspan x="0" y="0" class="st0 st2 st3">Get some</tspan><tspan x="14.3" y="72" class="st0 st2 st3">POPCORN!</tspan></text>
<g>
	<g>
		<g>
			<path class="st4" d="M1386.3,243.1c-0.4-2.9-1.7-5.7-3.9-8c-5.8-6.3-15.8-6.8-22.3-1.2c-5.8,5-6.9,13.3-2.9,19.5     c-2.4,0.8-4.7,2-6.7,3.8c-7.9,6.9-8.5,18.6-1.5,26.2c7.1,7.6,19.2,8.3,27.1,1.4c2.4-2.1,4.1-4.7,5.2-7.4     c6.5,2.8,14.3,1.8,19.9-3.1c7.6-6.6,8.3-18,1.4-25.4C1398.4,244.3,1392.2,242.4,1386.3,243.1z"/>
			<path class="st5" d="M1402.7,249c-4.3-4.6-10.4-6.6-16.3-5.8c-0.4-2.9-1.7-5.7-3.9-8c-3.5-3.8-8.5-5.5-13.3-5     c2.5,1.1,4.9,2.8,6.9,5c4.3,4.7,6,10.7,5.3,16.5c6-0.1,12,2.2,16.4,6.9c3.7,4,5.5,9.1,5.4,14.1     C1408.9,265.8,1408.9,255.7,1402.7,249z"/>
		</g>
		<g>
			<path class="st4" d="M1430.2,325.5c3.6,0.4,7.4-0.2,10.8-1.9c9.4-4.6,13.2-15.8,8.4-24.9c-4.3-8.1-13.8-11.9-22.5-9.4     c-0.2-3-1-5.9-2.5-8.7c-5.8-11.1-19.7-15.5-31.2-9.9c-11.4,5.6-16,19.1-10.2,30.2c1.8,3.4,4.3,6.1,7.3,8.2     c-5.3,6.5-6.6,15.6-2.5,23.5c5.6,10.7,19.1,15,30.2,9.6C1424.9,338.8,1429.2,332.4,1430.2,325.5z"/>
			<path class="st5" d="M1418,342.1c6.9-3.4,11.2-9.8,12.1-16.7c3.6,0.4,7.4-0.2,10.8-1.9c5.6-2.8,9.3-7.9,10.2-13.5     c-2.2,2.5-4.9,4.7-8.1,6.3c-7,3.4-14.8,3.5-21.6,0.8c-1.7,6.8-6.4,13-13.4,16.4c-6,3-12.6,3.4-18.6,1.8     C1395.8,344,1407.9,347.1,1418,342.1z"/>
		</g>
		<g>
			<path class="st4" d="M1365.4,307.2c1.8,0.1,3.6-0.1,5.4-0.5c11.5-2.5,18.8-13.6,16.2-24.8c-2.4-10.4-12.6-17.2-23.3-16     c0.2-1.7,0.1-3.5-0.4-5.3c-2.1-9.2-11.6-14.9-21-12.8c-9.5,2.1-15.4,11.1-13.3,20.3c-6.1,2.3-9.7,8.6-8.3,14.9     c1.5,6.4,7.7,10.6,14.2,10c-3.7,4-5.4,9.5-4.1,15.1c2.1,9.2,11.6,14.9,21,12.8C1359.1,319.3,1364.2,313.8,1365.4,307.2z      M1344.7,287.6c0,0-0.1,0-0.1,0c0,0,0.1-0.1,0.1-0.1C1344.7,287.6,1344.7,287.6,1344.7,287.6z"/>
			<g>
				<path class="st5" d="M1351.9,320.9c7.2-1.6,12.3-7.1,13.5-13.7c1.8,0.1,3.6-0.1,5.4-0.5c11.5-2.5,18.8-13.6,16.2-24.8      c-0.6-2.4-1.6-4.7-2.9-6.7c0.1,0.4,0.2,0.8,0.3,1.2c2.4,10.2-4.2,20.3-14.7,22.6c-4.2,0.9-8.3,0.5-12-1.1      c2,9.3-4.1,18.4-13.7,20.6c-1.1,0.2-2.2,0.4-3.3,0.4c-0.3,0.1-0.7,0.3-1,0.4C1343.3,321.2,1347.6,321.9,1351.9,320.9z"/>
			</g>
		</g>
		<g>
			<path class="st4" d="M1439.5,343c-0.6-4.1-2.4-8-5.4-11.3c-8.2-8.9-22.3-9.6-31.4-1.7c-8.2,7.1-9.6,18.7-4.1,27.4     c-3.4,1.1-6.6,2.9-9.4,5.3c-11.1,9.6-12,26.2-2.1,36.9c9.9,10.8,27,11.7,38.1,2c3.4-3,5.8-6.5,7.3-10.4c9.1,3.9,20.1,2.5,28-4.3     c10.8-9.3,11.7-25.4,2-35.8C1456.5,344.7,1447.8,341.9,1439.5,343z"/>
			<path class="st5" d="M1462.5,351.2c-6-6.5-14.7-9.3-23-8.2c-0.6-4.1-2.4-8-5.4-11.3c-4.9-5.3-11.9-7.7-18.7-7.1     c3.6,1.6,6.9,3.9,9.7,7c6.1,6.6,8.5,15.1,7.4,23.3c8.5-0.2,16.9,3.1,23,9.7c5.2,5.7,7.8,12.7,7.7,19.8     C1471.3,374.9,1471.3,360.7,1462.5,351.2z"/>
		</g>
		<g>
			<path class="st4" d="M1377.7,372.6c-0.6-4.1-2.4-8-5.4-11.3c-8.2-8.9-22.3-9.6-31.4-1.7c-8.2,7.1-9.6,18.7-4.1,27.4     c-3.4,1.1-6.6,2.9-9.4,5.3c-11.1,9.6-12,26.2-2.1,36.9c9.9,10.8,27,11.7,38.1,2c3.4-3,5.8-6.5,7.3-10.4c9.1,3.9,20.1,2.5,28-4.3     c10.8-9.3,11.7-25.4,2-35.8C1394.7,374.3,1386,371.5,1377.7,372.6z"/>
			<path class="st5" d="M1400.7,380.8c-6-6.5-14.7-9.3-23-8.2c-0.6-4.1-2.4-8-5.4-11.3c-4.9-5.3-11.9-7.7-18.7-7.1     c3.6,1.6,6.9,3.9,9.7,7c6.1,6.6,8.5,15.1,7.4,23.3c8.5-0.2,16.9,3.1,23,9.7c5.2,5.7,7.8,12.7,7.7,19.8     C1409.6,404.4,1409.5,390.3,1400.7,380.8z"/>
		</g>
		<g>
			<path class="st4" d="M1270.6,353.6c0.6-2.2,0.9-4.5,0.9-6.8c0-15-12.5-27.3-28-27.3c-14.5,0-26.4,10.6-28,24.2     c-2.2-0.7-4.6-1.1-7.1-1.1c-12.7,0-23.1,10-23.1,22.3c0,12.3,10.2,22.3,22.9,22.4c1.2,8.2,8.5,14.6,17.3,14.6     c8.9,0,16.3-6.4,17.4-14.7c4.2,5.7,11,9.4,18.8,9.4c12.7,0,23.1-10,23.1-22.3C1284.8,365,1278.9,357,1270.6,353.6z M1238.6,373.5     c0,0.1,0,0.1,0,0.2c-0.1-0.1-0.1-0.1-0.2-0.2C1238.5,373.5,1238.6,373.5,1238.6,373.5z"/>
			<g>
				<path class="st5" d="M1284.8,374.3c0-9.3-5.9-17.3-14.2-20.7c0.6-2.2,0.9-4.5,0.9-6.8c0-15-12.5-27.3-28-27.3      c-3.4,0-6.7,0.6-9.7,1.7c0.5,0,1.1-0.1,1.6-0.1c14.1,0,25.6,11.1,25.5,24.8c0,5.4-1.8,10.5-4.9,14.6      c12.9,0.2,23.2,10.4,23.2,22.9c0,1.4-0.1,2.8-0.4,4.2c0.1,0.5,0.2,0.9,0.2,1.4C1282.6,385.1,1284.8,379.9,1284.8,374.3z"/>
			</g>
		</g>
		<g>
			<path class="st4" d="M1389.6,348.4c0.6-2.2,0.9-4.5,0.9-6.8c0-15-12.5-27.3-28-27.3c-14.5,0-26.4,10.6-28,24.2     c-2.2-0.7-4.6-1.1-7.1-1.1c-12.7,0-23.1,10-23.1,22.3c0,12.3,10.2,22.3,22.9,22.4c1.2,8.2,8.5,14.6,17.3,14.6     c8.9,0,16.3-6.4,17.4-14.7c4.2,5.7,11,9.4,18.8,9.4c12.7,0,23.1-10,23.1-22.3C1403.8,359.7,1398,351.7,1389.6,348.4z      M1357.7,368.3c0,0.1,0,0.1,0,0.2c-0.1-0.1-0.1-0.1-0.2-0.2C1357.6,368.3,1357.6,368.3,1357.7,368.3z"/>
			<g>
				<path class="st5" d="M1403.8,369.1c0-9.3-5.9-17.3-14.2-20.7c0.6-2.2,0.9-4.5,0.9-6.8c0-15-12.5-27.3-28-27.3      c-3.4,0-6.7,0.6-9.7,1.7c0.5,0,1.1-0.1,1.6-0.1c14.1,0,25.6,11.1,25.5,24.8c0,5.4-1.8,10.5-4.9,14.6      c12.9,0.2,23.2,10.4,23.2,22.9c0,1.4-0.1,2.8-0.4,4.2c0.1,0.5,0.2,0.9,0.2,1.4C1401.6,379.9,1403.8,374.7,1403.8,369.1z"/>
			</g>
		</g>
		<g>
			<path class="st4" d="M1322.5,302.8c1-1.8,1.8-3.7,2.4-5.7c3.5-13-4.5-26.3-17.9-29.7c-12.5-3.2-25.3,3.4-29.8,14.8     c-1.8-1.1-3.8-2-5.9-2.5c-11-2.8-22.3,3.6-25.2,14.3c-2.9,10.7,3.7,21.6,14.6,24.4c-0.9,7.4,4,14.5,11.6,16.4     c7.7,2,15.6-2,18.5-9c2.3,5.8,7.3,10.5,14,12.2c11,2.8,22.3-3.6,25.2-14.3C1332.1,315.8,1328.9,307.6,1322.5,302.8z      M1290.2,313.1c0,0,0,0.1,0,0.1c0-0.1-0.1-0.1-0.1-0.2C1290.1,313.1,1290.2,313.1,1290.2,313.1z"/>
			<g>
				<path class="st5" d="M1329.9,323.8c2.2-8.1-1-16.3-7.5-21c1-1.8,1.8-3.7,2.4-5.7c3.5-13-4.5-26.3-17.9-29.7      c-2.9-0.7-5.9-1-8.8-0.7c0.5,0.1,0.9,0.2,1.4,0.3c12.2,3.1,19.5,15.2,16.3,27.1c-1.3,4.7-4,8.7-7.6,11.5      c11.1,3,17.7,14.1,14.7,24.9c-0.3,1.2-0.8,2.4-1.3,3.5c0,0.4-0.1,0.8-0.1,1.3C1325.5,332.7,1328.6,328.7,1329.9,323.8z"/>
			</g>
		</g>
		<g>
			<path class="st4" d="M1507.1,354.1c-1.3-4.6-4.4-8.7-9-11.3c-9.2-5.1-20.9-2-26.2,6.9c-3.5,5.9-3.2,12.9,0,18.4     c-4.5,2.2-8.4,5.7-11,10.3c-7.4,12.5-2.9,28.5,10.1,35.7c12.9,7.2,29.4,2.8,36.8-9.7c1.5-2.6,2.6-5.4,3.1-8.2     c9.9,2.5,20.6-1.6,25.9-10.6c6.3-10.7,2.5-24.4-8.6-30.5C1521.4,351.4,1513.6,351.2,1507.1,354.1z"/>
			<path class="st5" d="M1507.1,354.1c-1.3-4.6-4.4-8.7-9-11.3c-6.7-3.7-14.7-3.1-20.6,1c4.8-1.1,10-0.6,14.7,2     c7.2,4,10.9,11.7,10,19.2c6.1-3.7,14-4.1,20.6-0.4c9.6,5.3,12.9,17.2,7.5,26.5c-0.6,1-1.3,1.9-2,2.8c3.4-1.9,6.3-4.7,8.4-8.2     c6.3-10.7,2.5-24.4-8.6-30.5C1521.4,351.4,1513.6,351.2,1507.1,354.1z"/>
		</g>
		<g>
			<path class="st4" d="M1335.1,195.3c-0.9-3.1-3-5.9-6.1-7.7c-6.2-3.5-14.2-1.4-17.8,4.7c-2.4,4-2.2,8.7,0,12.5     c-3,1.5-5.7,3.9-7.5,7c-5,8.5-2,19.3,6.8,24.2c8.8,4.9,20,1.9,25-6.6c1-1.8,1.7-3.6,2.1-5.5c6.7,1.7,14-1.1,17.6-7.1     c4.3-7.3,1.7-16.6-5.8-20.7C1344.8,193.5,1339.6,193.4,1335.1,195.3z"/>
			<path class="st5" d="M1335.1,195.3c-0.9-3.1-3-5.9-6.1-7.7c-4.5-2.5-10-2.1-14,0.6c3.3-0.8,6.8-0.4,10,1.4     c4.9,2.7,7.4,7.9,6.7,13.1c4.1-2.5,9.5-2.8,14-0.3c6.5,3.6,8.8,11.7,5,18c-0.4,0.7-0.9,1.3-1.3,1.9c2.3-1.3,4.3-3.2,5.7-5.6     c4.3-7.3,1.7-16.6-5.8-20.7C1344.8,193.5,1339.6,193.4,1335.1,195.3z"/>
		</g>
		<g>
			<path class="st4" d="M1309.8,405c4.1,1.1,8.5,1.2,12.8-0.2c11.7-3.6,18.2-15.7,14.5-27.1c-3.3-10.1-13.6-16.2-24.1-14.9     c0.4-3.4,0-7-1.1-10.5c-4.5-13.8-19.7-21.4-33.9-17c-14.2,4.4-22.1,19.1-17.6,32.8c1.4,4.2,3.8,7.8,6.8,10.7     c-7.4,6.4-10.7,16.7-7.5,26.5c4.4,13.3,19.1,20.7,32.8,16.5C1301.2,419.3,1307.4,412.8,1309.8,405z"/>
			<path class="st5" d="M1292.6,422c8.6-2.6,14.8-9.2,17.2-17c4.1,1.1,8.5,1.2,12.8-0.2c7-2.2,12.2-7.4,14.4-13.7     c-3,2.5-6.5,4.5-10.5,5.7c-8.7,2.7-17.7,1.3-24.9-3c-3.3,7.6-9.9,13.7-18.6,16.4c-7.5,2.3-15.2,1.6-21.7-1.4     C1266.7,420,1280.1,425.8,1292.6,422z"/>
		</g>
		<g>
			<path class="st4" d="M1466.8,346.3c0.8,3.5,2.5,6.7,5.3,9.4c7.6,7.2,19.7,7,27.1-0.3c6.6-6.5,7.2-16.6,1.9-23.8     c2.8-1.1,5.5-2.8,7.8-5.1c9-8.9,8.8-23.2-0.4-31.9c-9.2-8.7-23.9-8.5-32.9,0.4c-2.7,2.7-4.6,6-5.7,9.4     c-8.1-2.8-17.4-1.1-23.8,5.3c-8.7,8.6-8.5,22.5,0.4,30.9C1452.1,345.8,1459.7,347.7,1466.8,346.3z"/>
			<path class="st5" d="M1446.5,340.6c5.6,5.3,13.2,7.2,20.3,5.8c0.8,3.5,2.5,6.7,5.3,9.4c4.5,4.3,10.7,6,16.5,5     c-3.2-1.2-6.2-3-8.7-5.5c-5.6-5.3-8.2-12.5-7.7-19.6c-7.3,0.6-14.8-1.7-20.4-7c-4.8-4.6-7.4-10.5-7.8-16.6     C1437.5,320.7,1438.4,332.9,1446.5,340.6z"/>
		</g>
		<g>
			<path class="st4" d="M1434.6,261.6c0.9,3,2.7,5.7,5.3,7.9c7.1,5.8,17.7,4.9,23.7-2c5.3-6.1,5.2-15,0.1-20.9     c2.4-1.2,4.6-2.8,6.5-4.9c7.3-8.4,6.2-20.8-2.5-27.9c-8.6-7-21.5-6-28.8,2.4c-2.2,2.6-3.7,5.5-4.3,8.6c-7.2-2-15.3,0.2-20.5,6.1     c-7,8.1-6,20.2,2.4,27C1421.7,262.1,1428.5,263.3,1434.6,261.6z"/>
			<path class="st5" d="M1416.5,257.8c5.2,4.3,12,5.5,18.1,3.8c0.9,3,2.7,5.7,5.3,7.9c4.3,3.5,9.8,4.6,14.8,3.4     c-2.9-0.8-5.6-2.2-8-4.2c-5.3-4.3-8-10.5-8.1-16.7c-6.3,1-13-0.6-18.3-4.9c-4.5-3.7-7.2-8.8-7.9-14     C1407.3,241,1408.9,251.6,1416.5,257.8z"/>
		</g>
		<g>
			<path class="st4" d="M1257.2,255.8c1.8,0.1,3.6-0.1,5.4-0.5c11.5-2.5,18.8-13.6,16.2-24.8c-2.4-10.4-12.6-17.2-23.3-16     c0.2-1.7,0.1-3.5-0.4-5.3c-2.1-9.2-11.6-14.9-21-12.8c-9.5,2.1-15.4,11.1-13.3,20.3c-6.1,2.3-9.7,8.6-8.3,14.9     c1.5,6.4,7.7,10.6,14.2,10c-3.7,4-5.4,9.5-4.1,15.1c2.1,9.2,11.6,14.9,21,12.8C1250.9,268,1256,262.4,1257.2,255.8z      M1236.5,236.2c0,0-0.1,0-0.1,0c0-0.1,0.1-0.1,0.1-0.2C1236.5,236.2,1236.5,236.2,1236.5,236.2z"/>
			<g>
				<path class="st5" d="M1243.7,269.5c7.2-1.6,12.3-7.1,13.5-13.7c1.8,0.1,3.6-0.1,5.4-0.5c11.5-2.5,18.8-13.6,16.2-24.8      c-0.6-2.4-1.6-4.7-2.9-6.7c0.1,0.4,0.2,0.8,0.3,1.2c2.4,10.2-4.2,20.3-14.7,22.6c-4.2,0.9-8.3,0.5-12-1.1      c2,9.3-4.1,18.4-13.7,20.6c-1.1,0.2-2.2,0.4-3.3,0.4c-0.3,0.1-0.7,0.3-1,0.4C1235.1,269.8,1239.4,270.5,1243.7,269.5z"/>
			</g>
		</g>
	</g>
	<g>
		<path d="M1178.7,395l37.8,311l216.8,15.2l41.6-321c-2.7-5.7-6.8-10.6-12.1-14c-10.6-7-24.1-7.1-34.9-0.4c-5.3,3.3-9.6,8-12.4,13.6    c-2.7-5.7-6.9-10.5-12.1-13.9c-10.6-6.9-24.1-7.1-34.9-0.4c-5.3,3.3-9.6,7.9-12.4,13.5c-2.7-5.7-6.8-10.4-12.1-13.8    c-10.6-6.9-24.1-7-34.9-0.4c-5.3,3.2-9.6,7.9-12.4,13.4c-2.7-5.6-6.8-10.4-12.1-13.7c-10.6-6.8-24.1-7-34.9-0.4    c-5.1,3.1-9.3,7.5-12.1,12.8l0,0c-2.7-5.6-6.8-10.3-12.1-13.6c-5.2-3.3-11.2-5.1-17.4-5.2c-6.1-0.1-12.1,1.5-17.4,4.5    C1185.7,385,1181.5,389.6,1178.7,395"/>
		<path d="M1472.7,413.3l-41.1,308.2l59.4-34.2c0,0,67.7-284.9,69.2-297.2c1-8,1.8-14.5,0.5-17.1c-2.6-5.3-7.9-4.2-13.7,3.2    c-2.8,3.6-5.6,7.2-7.9,12.8c0.2-5.1-0.3-9.2-1.6-11.8c-2.6-5.4-8-4.1-13.7,3.4c-2.8,3.7-5.6,8.8-8,14.5c0.2-5.2-0.3-9.4-1.6-12.1    c-2.6-5.5-8.4-4-14.2,3.8c-2.8,3.7-5.1,8.6-7.5,14.3v0c0.3-5.3-0.3-9.6-1.5-12.3c-1.3-2.7-3.2-3.8-5.7-3.2c-2.4,0.6-5.2,3-8.1,6.8    c-2.9,3.9-5.7,16.8-4.5,23.6"/>
		<g>
			<path class="st6" d="M1258.8,607.8l-5.8-0.2l0,5.7l-4-0.1l0,4.6l3.9,0.1l0,7.2c0,3,1,6.7,7.2,7c0.7,0,2.1,0.1,3.5-0.3l0-4.4     c-1,0.1-1.2,0.1-2.1,0c-1.9-0.1-2.8-1.1-2.8-2.5l0-7l4.9,0.2l0-4.7l-4.9-0.2L1258.8,607.8z"/>
			<path class="st6" d="M1275.5,613.7c-5.8-0.2-10.6,3.9-10.7,9.3c0,5.7,4.8,9.9,10.9,10.2c3.9,0.2,7.7-1.6,9-5.1l-4.8-1.7     c-0.7,1.5-2.6,2.4-4.2,2.3c-2.4-0.1-4.6-1.5-4.9-3.9l14.5,0.6c0.1-0.6,0.1-1.3,0.1-2C1285.5,617.9,1281.5,613.9,1275.5,613.7z      M1271,621.2c0.2-1.2,1.7-3.2,4.4-3.1c2.9,0.1,4.1,2,4.2,3.4L1271,621.2z"/>
			<path class="st6" d="M1295.8,621.9c-2.1-0.3-3.1-0.6-3.1-1.8c0-0.8,0.9-1.5,2.3-1.5c1.7,0.1,2.6,1,2.9,2.3l5.1-1     c-0.4-2.1-2.7-5.4-7.9-5.5c-4.2-0.1-7.9,2.3-7.9,5.7c0,4.2,3.4,5.6,7.2,6.2c2.1,0.4,3.2,0.8,3.2,2c0,0.7-0.7,1.6-2.4,1.5     c-1.9-0.1-3.1-1.3-3.3-2.7l-5.1,1c0.3,2,2.5,5.6,8.4,5.9c5.5,0.3,8.1-2.7,8.2-5.9C1303.3,623.8,1299.7,622.4,1295.8,621.9z"/>
			<path class="st6" d="M1315.7,615.2c-6.1-0.2-11,3.9-11,9.5c0,5.7,4.8,10.1,10.8,10.3c6,0.3,11-3.8,11-9.5     C1326.5,619.8,1321.7,615.4,1315.7,615.2z M1315.6,629.9c-2.7-0.1-4.9-2.2-4.9-5.1c0-2.8,2.2-4.7,4.9-4.6c2.7,0.1,4.9,2.2,4.9,5     C1320.5,628.1,1318.3,630,1315.6,629.9z"/>
			<path class="st6" d="M1340.7,616.1c-0.8,0-4.1,0.1-5.7,2.7l0,0l0-2.5l-5.8-0.2l-0.1,19.1l5.8,0.3l0.1-10.6c0-2,1.1-3.7,3.6-3.6     c2.4,0.1,3.5,1.7,3.5,3.9l-0.1,10.7l5.8,0.3l0.1-12C1347.9,620.1,1345.8,616.3,1340.7,616.1z"/>
			<path class="st6" d="M1360.9,616.7c-5.8-0.2-10.6,4.2-10.7,9.7c0,6,4.8,10.4,10.9,10.7c3.9,0.2,7.7-1.7,9-5.4l-4.8-1.8     c-0.7,1.6-2.6,2.5-4.2,2.4c-2.4-0.1-4.6-1.6-4.9-4l14.5,0.6c0.1-0.7,0.1-1.4,0.1-2.1C1370.8,621.1,1366.8,617,1360.9,616.7z      M1356.3,624.6c0.2-1.3,1.7-3.3,4.4-3.2c2.9,0.1,4.1,2.1,4.2,3.6L1356.3,624.6z"/>
			<path class="st6" d="M1386.1,623.1l0-5l-4.9-0.2l0-6.2l-5.8-0.2l0,6.1l-4-0.1l0,5l3.9,0.2l0,7.8c0,3.2,1,7.2,7.2,7.5     c0.7,0,2.1,0.1,3.5-0.3l0-4.7c-1,0.1-1.2,0.1-2.1,0.1c-1.9-0.1-2.8-1.1-2.8-2.6l0-7.5L1386.1,623.1z"/>
			<path class="st6" d="M1310.6,548.2l0-4.2c-0.8,0.7-1.5,1.5-1.6,2.6c0,0.3,0.3,0.6,1.2,1.4c0,0,0,0,0,0     C1310.4,548,1310.5,548.1,1310.6,548.2z"/>
			<path class="st6" d="M1330.7,508.9c-1.8-0.5-3.8-0.7-6-0.7c-0.8,0-2.5,0.2-4.6,0.8c-0.4,0.1-0.9,0.3-1.3,0.4     c-0.2,0.1-0.4,0.2-0.7,0.2c-0.2,0.1-0.5,0.2-0.7,0.3c-0.3,0.1-0.6,0.3-0.9,0.4c-2.1,1.1-4.3,2.7-5.7,5.2l-0.1,0l0-6.1h0     l-14.3,0.4l0,0l-0.3,46.2l3.4,0l0,0c1.1-0.3,2.1-0.8,2.1-2.1c0.2-2.2-2.2-4.8,0.2-6.5c0.4-0.3,0.9-0.5,1.4-0.6     c0.4-0.1,0.9-0.2,1.3-0.3c0,0,0,0,0,0s0,0,0.1,0c0.1,0,0.3,0,0.4,0c0.5-0.1,1.2-0.2,1.5-0.3c1.6-1,3-2.2,4-3.5l0.1-12.4     c0-3.9,1.9-7.5,5.8-8.8c0.9-0.3,1.9-0.5,3.1-0.5c0,0,0,0,0,0c0.2,0,0.4,0,0.6,0c0.1,0,0.1,0,0.2,0c0.2,0,0.3,0,0.5,0     c0.1,0,0.1,0,0.2,0c0.4,0,0.8,0.1,1.2,0.2c0,0,0.1,0,0.1,0c0.2,0,0.3,0.1,0.5,0.1c0,0,0,0,0.1,0c0.4,0.1,0.7,0.3,1,0.4     c0,0,0,0,0,0c0.2,0.1,0.3,0.2,0.5,0.3c0,0,0,0,0,0c1.6,0.8,2.9,0.6,3.4-0.7c0.5-1.4,1.1-2.6,1.9-3.2c0.8-0.6,1.4-0.7,1.8,0     c0.4,0.7-0.6,1.2-1.6,1.7c-0.9,0.5-1.7,1.1-1.7,3.1c0,2,0,7,0,7l-0.1,15c1-0.8,2.3-1,3.5,0c4,2.4,6.3,7.1,11.1,8h0     c0-0.2-0.1-0.4-0.1-0.6c-0.2-1.4-0.3-3-0.3-4.8l0,0l0.1-21c0-2.1-0.2-4.1-0.7-6C1337.1,518.2,1333.2,514.1,1330.7,508.9z"/>
			<path class="st6" d="M1269.9,551.2c-0.8-1.1-1.4-2.5-1.6-3.9c-3,1.5-6.3,2-9.7,1.7c2.2,7.9,6.2,15.2,11.6,21.4     C1274.5,565.3,1275.7,559.2,1269.9,551.2z"/>
			<path class="st6" d="M1373.6,561.8c0.4-0.7,0.7-1.4,1.1-2.1c0.1-0.3,0.3-0.6,0.4-0.9c0.3-0.6,0.5-1.2,0.7-1.8     c0.2-0.6,0.5-1.3,0.7-1.9c0.2-0.7,0.4-1.3,0.6-2c0.2-0.7,0.4-1.4,0.5-2.2c1-4.2,1.6-9.1,1.7-14.8c-1,0.9-1.9,1.7-2.9,2.6     c-1.3,0.9-2.6,1.7-4.1,2.4c-2.4,1.1-5,1.7-7.6,1.8c-0.1,0.9-0.2,1.8-0.3,2.7c-0.1,0.4-0.1,0.8-0.2,1.2c-0.1,0.8-0.3,1.6-0.4,2.3     c-0.1,0.6-0.3,1.3-0.4,1.8c0,0.2-0.1,0.3-0.1,0.5c-0.3,1-0.6,2-1,2.8c-0.1,0.3-0.3,0.6-0.4,0.9c-0.2,0.3-0.3,0.6-0.5,0.9     c-0.4,0.7-0.8,1.3-1.3,1.9h0c-0.1,1.9-0.1,3.7-1,5.4c-0.8,1.5-1.3,2.8-2.3,3.9c-2.4,2.6-4.9,4.9-8.4,6.3c-0.5,0.2-1,0.4-1.5,0.6     l0,0c1.4,0.3,2.9,0.4,4.5,0.4C1359.4,574.7,1368,571.8,1373.6,561.8z"/>
			<path class="st6" d="M1366.5,517.2c-0.9,1-1.9,1.8-3.1,2.5c-0.1,0.1-0.2,0.1-0.4,0.2c0.9,2.9,1.5,5.9,1.8,9     c2.1-0.1,3.8-1.7,4.4-4.1c1.4-5.4,0.8-12.5,4.8-16l0,0c-0.5-1.2-1.1-2.3-1.7-3.5c-0.6-1.1-1.3-2.2-2-3.3     c-0.2-0.3-0.4-0.6-0.6-0.9c-1.6-2.4-3.3-4.6-5.3-6.7v0c-1.8,1.5-3.1,3.3-2.4,5.8C1363.4,506.1,1371.1,511.1,1366.5,517.2z"/>
			<path class="st6" d="M1265.1,511.5c2.5,1.5,4.2,4.5,2.8,7.3c-0.2,0.7-0.6,1.5-1,2.3c-1.3,2.7-3.4,5.6-0.7,7.8     c1.3,1.2,3.1,1.9,4.9,2.7l0,0c0.5-5.6,2.1-11,4.6-15.9c0.2-0.3,0.3-0.7,0.5-1c0.2-0.4,0.4-0.8,0.7-1.1c0.3-0.5,0.6-0.9,0.8-1.4     c8-12.6,22.3-21.5,38.7-22.7c0,0,0,0,0,0c6.4-1.3,10.2-7.5,13.7-11.3c0.3-0.5,0.8-1,1.4-1.6v0c-4.3-0.7-8.7-1-13.2-0.8     c-15.8,0.7-30.3,7-41.3,16.7c-0.7,0.6-1.4,1.3-2.1,2c0,0,0,0,0,0c-2.7,2.6-5.1,5.3-7.3,8.3c-0.1,0.2-0.3,0.4-0.4,0.6     c-0.6,0.8-1.1,1.6-1.7,2.5c-0.4,0.6-0.7,1.2-1.1,1.8c-0.3,0.5-0.5,0.9-0.8,1.4c-0.3,0.5-0.5,1-0.8,1.4l0,0     C1263.7,510.7,1264.4,511.1,1265.1,511.5z"/>
			<g>
				<path class="st7" d="M1405.5,493.9c-2.1-2.6-5.4-1.7-8-0.1c-5.2,3.3-4.8,11.2-9.9,14.6c-0.3,0.2-0.5,0.4-0.8,0.5      c-0.8,0.5-1.7,1-2.5,1.5c-3.9,2-7.8,2.7-9.9-1.2l0,0c0-0.1-0.1-0.2-0.1-0.3c-2,1.8-2.9,4.4-3.4,7.3c-0.5,2.9-0.7,6-1.4,8.7      c-0.6,2.4-2.4,4.1-4.4,4.1c0.1,1.5,0.2,3.1,0.2,4.6c0,0,0,0,0,0c0,2.2-0.1,4.2-0.2,6c-0.1,1.1-0.1,2.2-0.2,3.2      c2.6-0.1,5.2-0.7,7.6-1.8c1.5-0.7,2.9-1.5,4.1-2.4c1-0.8,2-1.7,2.9-2.6c0-0.8,0-1.7,0-2.6c0,0,0,0,0,0c0,0,0,0,0,0      c0-1.1,0-2.2-0.1-3.2c0,0,0,0,0,0.1c-0.1-7.1,2.6-14.9,6-18.9c0.7-0.8,1.5-1.5,2.3-2c4.8-2.8,9.4-2.3,14.9-6.3      C1406,500.5,1407.4,496.4,1405.5,493.9z"/>
				<path class="st7" d="M1356.6,560.6c-1.3,0.6-2.8,0.8-4.3,0.8c-4.2,0-6.9-1.5-8.4-4.6c-0.1-0.2-0.2-0.4-0.3-0.6      c-0.2-0.5-0.4-1.1-0.6-1.7c-0.1-0.2-0.1-0.5-0.2-0.8c0-0.2-0.1-0.4-0.1-0.6c-2.4-0.5-4.2-1.8-5.9-3.4c-1.7-1.6-3.3-3.3-5.2-4.5      c-1.2-1-2.5-0.8-3.5,0l0,2.7c0,3.4,0.4,6.5,1.1,9.3c0,0.1,0.1,0.3,0.1,0.4c0.4,1.5,0.9,2.9,1.6,4.3c0.3,0.6,0.5,1.1,0.8,1.6      c0.1,0.1,0.1,0.2,0.2,0.4c0.4,0.6,0.8,1.3,1.2,1.8c0.4,0.6,0.8,1.1,1.3,1.6c0,0.1,0.1,0.1,0.1,0.2c0.2,0.2,0.4,0.4,0.6,0.6      c0.6,0.6,1.2,1.2,1.9,1.7c0.3,0.2,0.6,0.5,0.9,0.7c0.3,0.2,0.6,0.4,1,0.7c2.4,1.5,5.1,2.5,8.1,3.1c0.5-0.2,1-0.4,1.5-0.6      c3.5-1.3,6-3.7,8.4-6.3c1-1.1,1.7-2.3,2.5-3.7c1-1.7,0.8-3.6,0.8-5.5C1359.1,559.2,1357.9,560.1,1356.6,560.6z"/>
				<path class="st7" d="M1315.2,537.8c-1.3-0.5-2.4,0.6-2.8,1.6c-0.4,1.2-1,2.3-1.8,3.3c-0.3,0.3-0.6,0.7-0.9,1      c-1.7,1.5-2.4,2-3.2,2.5c-0.4,0.2-1.1,0.3-1.5,0.3c-0.1,0-0.3,0-0.4,0c0,0-0.1,0-0.1,0c-0.4,0.1-0.9,0.2-1.3,0.3      c-0.5,0.2-1,0.3-1.4,0.6c-2.3,1.7,0,4.3-0.2,6.5c0,1.2-1,1.7-2.1,2.1l11,0l0-8c-0.1-0.1-0.2-0.1-0.3-0.2c0,0,0,0,0,0      c-1-0.7-1.3-1.1-1.2-1.4c0.1-1,0.7-1.8,1.4-2.5c0.1,0,0.1-0.1,0.2-0.1c0.3-0.2,0.5-0.4,0.8-0.6c1.8-1.1,4.3-1.5,4.8-3.6      c0.1-0.4,0.1-0.7-0.1-1C1316,538.4,1315.7,538.1,1315.2,537.8z"/>
				<path class="st7" d="M1271.1,531.6c-1.8-0.8-3.6-1.5-4.9-2.7c-2.6-2.2-0.6-5.1,0.7-7.8c0.4-0.8,0.7-1.6,1-2.3      c1.4-2.8-0.4-5.8-2.8-7.3c-0.7-0.4-1.5-0.9-2.2-1.2c-0.4,0.8-0.8,1.5-1.1,2.3c-0.4,0.8-0.7,1.6-1,2.4c-0.1,0.2-0.2,0.5-0.3,0.7      c-0.6,1.5-1.1,3-1.6,4.6c-0.2,0.8-0.4,1.6-0.6,2.3c-0.4,1.6-0.7,3.2-0.9,4.8c-0.1,0.8-0.2,1.6-0.3,2.4c-0.2,1.6-0.3,3.3-0.3,4.9      c0,1.8,0.1,3.6,0.3,5.4c0.2,1.8,0.4,3.5,0.8,5.3c0.2,1.2,0.5,2.3,0.8,3.4c3.4,0.3,6.7-0.2,9.7-1.7c-0.3-2.2,0.3-4.5,2.7-6      c0.1-0.1,0.3-0.2,0.5-0.2c-0.3-2.1-0.5-4.2-0.5-6.4C1271,533.6,1271.1,532.6,1271.1,531.6z"/>
			</g>
			<g>
				<path class="st8" d="M1330.7,508.9c2.5,5.2,6.4,9.3,11,11.8c-0.1-0.3-0.2-0.7-0.3-1C1339.9,514.6,1336.4,510.5,1330.7,508.9z"/>
				<path class="st8" d="M1354.5,468.2c3.8-2.8,8.8-3.9,12.9-4.9c3.9-1,8.2-3.9,7.1-7.3c-0.8-2.4-6.1-2.8-11.2,0.3      c-4.6,2.8-7.9,10.1-10.6,11.5c-3.2,1.7-8.8,1.5-13.3,3.7c-3.9,1.9-6.3,3.6-7.8,5c-0.6,0.6-1.1,1.1-1.4,1.6      c-3.6,3.9-7.3,10-13.7,11.3c0,0,0,0,0,0c0.6,0,1.2-0.1,1.9-0.1c12.6-0.5,24.4,3.9,33.3,12.2c5.4,5.2,9.3,11.4,11.5,18.4      c0.1-0.1,0.2-0.1,0.4-0.2c1.1-0.7,2.2-1.6,3.1-2.5c4.7-6-3.1-11-4.2-17c-0.7-2.5,0.5-4.3,2.4-5.8c-0.9-1-1.9-2-2.9-3      c-4.8-4.5-10.2-8.1-16.2-10.8v0c-2-0.8-2.2-2-1.5-3.5C1345.7,474.1,1351.9,470.1,1354.5,468.2z"/>
				<path class="st8" d="M1303.5,576.6c-1.2-0.4-2.4-0.8-3.5-1.3c-1-0.4-2-0.9-3-1.3c-0.3-0.2-0.7-0.3-1-0.5      c-0.7-0.4-1.4-0.7-2.1-1.1c-0.6-0.3-1.1-0.7-1.7-1c-0.7-0.4-1.4-0.9-2.1-1.4c-0.6-0.4-1.3-0.9-1.9-1.4c-0.2-0.2-0.4-0.3-0.7-0.5      c-2-1.6-5-4.6-5.3-5c0,0,0,0,0,0c0,0,0,0,0,0c-0.2-0.3-1.6-1.9,1.4-5.3c0.1-0.1,0.1-0.2,0.2-0.2c0.5-0.5,1.3-1.1,2.1-1.7      c1.2-0.9,2.5-1.8,3.5-3.1c2-2.5,2.6-6.5,1-7.5c-3-2.1-5.2,0.7-5.8,2.7c-0.7,2.1,0.1,4.2-0.1,6.2c-0.1,0.9-0.3,1.9-1,2.8      c-0.2,0.2-0.3,0.4-0.5,0.6c-1.9,1.9-4.5,1.1-5.9-1.1c-0.3-0.5-0.5-0.9-0.8-1.4c0,0,0,0,0,0c-1.8-3.2-3.2-6.7-4.1-10.4      c-0.3-1.2-0.5-2.4-0.7-3.6c-0.2,0.1-0.3,0.1-0.5,0.2c-2.4,1.5-3,3.8-2.7,6c0.2,1.4,0.8,2.8,1.6,3.9c5.8,8.1,4.6,14.1,0.3,19.2      c0.4,0.5,0.8,1,1.3,1.4c0.6,0.7,1.3,1.4,2,2c0.7,0.7,1.4,1.3,2.1,2c0.7,0.6,1.4,1.3,2.2,1.9c0.4,0.3,0.7,0.6,1.1,0.9      c0.4,0.3,0.8,0.6,1.1,0.9c0.8,0.6,1.6,1.1,2.4,1.7c0.4,0.3,0.8,0.5,1.2,0.8c1.6,1.1,3.3,2,5,3c0.7,0.3,1.3,0.7,2,1      c0.4,0.2,0.9,0.4,1.3,0.6c0.7,0.3,1.4,0.6,2.1,0.9c0.6,0.3,1.3,0.5,1.9,0.8c0.8,0.3,1.5,0.6,2.3,0.8c0.6-0.5,1.3-1,1.9-1.5      c1.5-1.3,2.8-2.7,4-4.3c1.2-1.6,2.2-3.3,3-5c0.1-0.2,0.2-0.4,0.3-0.6c-0.7-0.2-1.4-0.3-2.1-0.5      C1304.6,576.9,1304,576.7,1303.5,576.6z"/>
			</g>
			<path class="st6" d="M1338.8,571.1c0.5-0.2,1.1-0.2,1.3-0.9c0.1-0.4-0.1-1-0.8-1.4c-0.9-0.4-1.8,0.1-2.4,0.9     c-0.2,0.2-0.3,0.5-0.4,0.7c-0.5,1.5-1.8,3.3-3.5,4.8c-1.6,1.4-3.7,2.5-5.9,2.9l0,0c-3,0.5-6.1,0.8-9.2,0.7     c-3.6-0.1-7.1-0.5-10.4-1.3c-0.1,0.2-0.2,0.4-0.3,0.6c-0.8,1.7-1.8,3.4-3,5c-1.2,1.6-2.6,3-4,4.3c-0.6,0.5-1.3,1-1.9,1.5l0,0     c1.8,0.6,3.6,1.1,5.5,1.6c0.7,0.2,1.4,0.3,2.1,0.5c1.9,0.4,3.9,0.7,5.9,1c2,0.2,4,0.4,6.1,0.4c6.6,0.1,13.1-0.7,19.4-2.6v0     l-1.7-5.2v0v0c-1.5-5.9-1.8-8.2-1.8-8.5c0-0.4,0.1-0.6,0.2-0.8c0.3-0.5,0.8-0.5,1.7-1c2.5-1.4,2.3-1.3,2.8-2.9     C1338.4,571.3,1338.6,571.2,1338.8,571.1"/>
			<g>
				<path class="st6" d="M1336.3,477.5c1.5-1.3,3.3-1.4,4.3-0.4c0.6,0.6,0.8,1.3,0.7,1.9c-0.1,1.1-1.1,2.2-2.2,2.9      c-0.1,0-0.1,0.1-0.2,0.1c-2.8,1.6-3.5,0.5-5.5,3.4c-1.9,2.9,0.4,4.3,0.4,5.9c-3.2-0.9-5.6-1.4-9-1.8c0-0.9,1.6-1.8,3.1-2.1      c1.6-0.4,3.5,0.4,4.6-1.6c0.6-1.1,0.8-2.5,1.2-4.1c0.2-0.8,0.6-1.7,1.1-2.6C1335.3,478.4,1335.8,477.9,1336.3,477.5z"/>
			</g>
		</g>
		<path class="st0" d="M1474.2,399.9c0,0,1.5-17.4,12.3-17.3s7.8,18.9,7.8,18.9l-49.9,312.8l-12.8,7.2L1474.2,399.9z"/>
		<path class="st0" d="M1515.9,395l-55.2,309.4l17.6-9.5l60.6-306.3c0,0,2.9-14.7-6.5-14.8S1515.9,395,1515.9,395z"/>
	</g>
</g>
</svg>