<?xml version="1.0" encoding="utf-8"?>
<!-- Generator: Adobe Illustrator 22.0.1, SVG Export Plug-In . SVG Version: 6.00 Build 0)  -->
<svg xmlns="http://www.w3.org/2000/svg" xmlns:xlink="http://www.w3.org/1999/xlink" version="1.1" id="Layer_1" x="0px" y="0px" viewBox="0 0 1920 1080" style="enable-background:new 0 0 1920 1080;" xml:space="preserve">
<style type="text/css">
	.st0{fill:#FFFFFF;}
	.st1{fill:#5C00D3;}
	.st2{fill:#FFE600;}
	.st3{fill:#39E28D;}
	.st4{fill:#71FFB4;}
	.st5{fill:#FFBC00;}
	.st6{font-family:'GorditaBold';}
	.st7{font-size:54.9149px;}
	.st8{font-family:'GorditaMedium';}
	.st9{font-size:32.6981px;}
	.st10{fill:#282828;stroke:#FFFFFF;stroke-miterlimit:10;}
	.st11{fill:none;}
	.st12{font-family:'GorditaRegular';}
	.st13{font-size:18px;}
	.st14{font-size:24px;}
	.st15{fill:#47B877;}
	.st16{fill:#FFE800;}
	.st17{fill:#7C00FF;}
</style>
<path class="st1" d="M1923,390.9c-38.6-33.4-107.1-71.5-220-74.9c-132.8-3.9-207.1,131.1-261,180c-53.9,48.9-110.8,112.2-255,136  c-182,30-274,135-351,276c-81,148.3-320,85-462,87c-81.5,1.1-138,47.5-170.2,87H1923V390.9z"/>
<g id="Programmer">
	<g>
		<path class="st2" d="M1326.4,263.3c13.7-4.7,30.7-0.5,44.5,2.1c10.9,2.1,15.6-14.7,4.6-16.7c-16.9-3.2-36.9-7.8-53.7-2.1    C1311.2,250.2,1315.8,267,1326.4,263.3L1326.4,263.3z"/>
	</g>
	<path class="st0" d="M1300.9,766.1c3.4,0,6.9,0.1,10.3,0.1c0.6,0,1.2,0,1.7-0.7c0.4-0.6,0.5-1.7,0.6-2.6c0.5-6,1-12.1,1.4-18.1   c-0.1,0.8-11.5-2.6-12.9-0.7C1299.4,747.6,1300.9,761.1,1300.9,766.1z"/>
	<path class="st0" d="M1370.8,764.6c3.3,0.1,6.5,0.1,9.8,0.1c1,0,2.2-0.2,2.9-1.7c0.8-1.6,0.8-4.1,0.8-6.3c0-6.1,0-12.1,0-18.2   c0-0.7,0-1.4-0.2-1.9c-0.3-0.8-0.8-1-1.2-1.1c-2.6-0.6-10.4-2.4-12.1,2.6C1370.1,739.9,1371.2,764.6,1370.8,764.6z"/>
	<path id="XMLID_3_" class="st3" d="M1371.9,755.6c5.6-0.2,11.2,0,16.8,0.7c2.9,0.4,5.6,1.6,8,3.2c5.5,3.7,11.4,6.8,17.6,9.3   c2.2,0.9,4.5,1.7,6.1,3.5c1.6,1.7,2.3,4.6,0.8,6.4c-1.3,1.6-3.6,1.8-5.7,1.8c-15.8,0.2-31.6-1.2-47.1-4c-0.9-0.2-1.9-0.4-2.6-1   c-0.5-0.5-0.8-1.3-1-2c-1.2-4.3-0.9-8.9,0.6-13.1C1366.2,757.6,1368.9,755.7,1371.9,755.6z"/>
	<path id="XMLID_2_" class="st3" d="M1312.4,754.4c-5.6-0.3-11.3,0-16.9,0.6c-2.1,0.3-4.1,1.1-5.9,2.3c-5.6,3.8-11.6,6.9-17.8,9.4   c-2.1,0.8-4.3,1.6-5.9,3.3c-1.6,1.6-2.2,4.4-0.8,6.2c1.3,1.5,3.5,1.7,5.5,1.8c15.2,0.3,30.4-0.8,45.4-3.4c0.9-0.2,1.9-0.3,2.5-1   c0.5-0.5,0.8-1.2,1-1.9c1.1-3.8,1-7.8-0.1-11.6C1318.4,757,1315.7,754.6,1312.4,754.4z"/>
	<path class="st2" d="M1304.7,446.1c0,0-14.2,58.4-16.2,144.6s3.7,152.8,3.7,152.8s14.5,8.9,27.9,0c0,0,9.4-94.2,4.8-146.7   c0,0,13.9-41.9,19.2-75.7h22.8v-71L1304.7,446.1z"/>
	<path class="st2" d="M1344.3,448.6l11.3,154l8.3,140c0,0,16.4,8.8,29-2.5c0,0,1-119,0-134.2c0,0,15-120.7,7.7-153.8L1344.3,448.6z"/>
	<path id="XMLID_1_" class="st4" d="M1408.2,439.1c-1.9-26.2-0.4-53.3-5.6-79.1c-6.4-31.8-10.4-55.3-24.8-89.6   c-3.7-8.7-14.6-11.3-25.9-10.8c-4.5-0.2-6.4,0.4-6.8,0.4c-7.3-0.4-4.8,0.9-10.7-1c-6.6-2.1-17.6,3.6-19,9.2   c-11,45.2-13.2,118.5-15.4,169.3c0,0.1,0,0.1,0,0.2c-0.6,2.6-5.4,20.4-5.4,20.7c-0.2,3.1,1.6,8.3,6.3,9.8   c36.1,11.6,109.5,6.7,115.1-10.9C1418.7,449.2,1410.7,444.4,1408.2,439.1z"/>
	<path class="st0" d="M1483.7,407.9c5.7-1.6,13.7,8.8,11.2,29.4s-15.8,20.7-18.3,17.5s4-24.7,1.1-25.9s-2.9,12.6-7.1,11.1   C1466.4,438.5,1467,412.5,1483.7,407.9z"/>
	<path class="st0" d="M1385,276.4c2.6-19.9,47.1-3.5,76.2,41.7s30,78.8,25.5,109.6c0,0-12,9.8-13.3-13.5   c-1.8-33.7-15.6-55.1-33.2-75.7C1426.6,322.4,1381.5,303.7,1385,276.4z"/>
	<path class="st0" d="M1196.8,161c-5.3,2.4-14.9-6.5-15.8-27.3c-0.9-20.8,12.3-23,15.3-20.2c3,2.8,0,25.1,3,25.8   c3,0.7,0.9-12.9,5.3-12.1S1212.6,153.8,1196.8,161z"/>
	<path class="st0" d="M1316,288.4c0.6,20-45.9,11-81.8-29c-35.9-40-42.2-73-42.6-104.2c0,0,10.3-11.6,15.2,11.2   c7.1,33,24.2,51.9,44.8,69.5C1267.7,249.7,1315.2,261,1316,288.4z"/>
	<path class="st4" d="M1335.6,281.4c6.5,14.1-10.2,28.3-27,30.1c-16.8,1.8-45.5-12.8-45.5-12.8s-9.3-43.2,21.7-48.8   C1284.7,249.9,1325,258.4,1335.6,281.4z"/>
	<path class="st4" d="M1355.8,286.1c-4.6-14.8,13.8-26.7,30.7-26.3c16.9,0.4,43.5,18.6,43.5,18.6s3.6,44-27.8,45.6   C1402.2,324,1363.2,310.3,1355.8,286.1z"/>
	<path class="st5" d="M1404.2,479.6l-21.9,2.7c0,0-1.7,31.5,6.3,39.8c8,8.3,17.9-3.6,18.2-12.6S1404.2,479.6,1404.2,479.6z"/>
	<path class="st5" d="M1298.6,478l17.1,1.6c0,0-5.2,40.8-17.2,40.1C1286.4,519,1298.6,478,1298.6,478z"/>
	<g>
		<path class="st3" d="M1390.6,306.8c-1.5-5.3-3.3-10.9-5.3-16.6c-24.5,6.3-49.5,5.5-74.5,1c-0.9,5.5-1.7,11.2-2.4,17.2    C1336,313.3,1363.7,314.1,1390.6,306.8z"/>
		<path class="st3" d="M1399,342.2c-1.2-5.8-2.4-11.4-3.6-17c-28.8,5.3-60.6,7.9-88.8,0.6c-0.6,5.8-1.1,11.7-1.6,17.6    C1335,350.7,1368.4,347.9,1399,342.2z"/>
		<path class="st3" d="M1315.4,268.3c-0.4,1.6-0.7,3.3-1.1,4.9c19.8,7.7,45,8.3,66,3.5c-0.8-2.1-1.6-4.1-2.5-6.3    c-3.7-8.7-14.6-11.3-25.9-10.8c-4.5-0.2-6.4,0.4-6.8,0.4c-7.3-0.4-4.8,0.9-10.7-1C1327.8,257,1316.8,262.8,1315.4,268.3z"/>
		<path class="st3" d="M1375.8,417c6.6-0.7,19.7-0.7,31.3-2.8c-0.2-5.9-0.4-11.8-0.6-17.8c-13.4-0.1-48.1,4.7-54.5,4.8    c-17.6,0.4-34.2-1-50.1-6.8c-0.3,6.1-0.6,12.1-0.8,17.9C1324.9,419.7,1350.3,419.6,1375.8,417z"/>
		<path class="st3" d="M1410.8,443c-1.1-1.3-2-2.6-2.7-3.9c-0.3-4.6-0.5-9.2-0.7-13.8c-29.6,13.7-74.4,8.4-106.9,0.6    c-0.2,4-0.3,7.9-0.5,11.7c0,0.1,0,0.1,0,0.2c-0.2,0.8-0.8,2.9-1.5,5.6C1333.6,451.8,1378,456.7,1410.8,443z"/>
		<path class="st3" d="M1402.1,357.8c-32.6,9.6-65.6,10.4-98.3,2.1c-0.4,5.9-0.7,11.8-1.1,17.6c33.9,8.1,68.5,7.4,102.1-2.3    c-0.6-5.1-1.3-10.2-2.3-15.2C1402.4,359.3,1402.3,358.5,1402.1,357.8z"/>
	</g>
	<g>
		<path class="st0" d="M1336.8,238.5l-3.6,26.9c0,0,16.1,8.8,33.8,2l-5.6-31.7L1336.8,238.5z"/>
		<path class="st3" d="M1393.1,165c-2.9-1.4-5.7-1.1-8,0.1c-2.5-2.2-6-3.8-11-4.3c-6-0.6-11.2,1.6-15.4,5.4    c-7.2,3.3-11.1,11.2-10.5,18.8c-0.2,0.9-0.4,1.8-0.6,2.7c-7.9,5-12.3,14.8-10.7,24.4c1.5,8.8,7.5,13.7,14.4,14.6    c0,0,0.1,0.1,0.1,0.1c5.2,4.4,13.1,5.9,20.3,4.6c4.8,1.3,10.6-1.1,13.4-6c5.5-1.4,10.6-5.3,12.9-10.3c1.7-3.5,2.1-7.9,1.5-11.9    c1.1-1.6,1.8-3.5,1.9-5.6C1410.1,186.6,1405.6,171,1393.1,165z"/>
		<path class="st0" d="M1374.8,201.6c0,0,1.6-10.5,10.3-7.6c8.7,2.9-2.9,21.8-8.2,22.9S1374.8,201.6,1374.8,201.6z"/>
		<path class="st0" d="M1322.5,179.9c0,0-5.3,28.8-3.5,39.2s11.9,22.3,20.3,24.1s30.5-4,34.5-19c4-15,7.5-41.6,7.5-41.6    s3.2-19-27.8-21.2C1324.3,159.3,1322.5,179.9,1322.5,179.9z"/>
		<path class="st3" d="M1396.3,163.8c4.2-6.3-1-17.2-8.4-21.1c-2.2-1.2-5.7-1.2-7.4,1c-0.5,0.6-0.9,1.1-1.3,1.7    c-0.7-0.7-1.3-1.4-2.2-2.1c-4.1-3.2-7.7-4.3-10.7-4.1c-1.1-0.4-2.2-0.4-3.4-0.1c-0.6,0.2-1.2,0.5-1.8,0.7    c-5.2-5.2-14.2-5.6-19.2-0.1c-1.4-0.4-2.9-0.6-4.3-0.6c-2.1,0-4,0.5-5.9,1.2c-4.3-1.2-9-0.6-12.8,2.9c-3.3,3.1-5.3,6.3-6.2,9.4    c-11.9,1.7-18,17.3-10.9,27.7c1.4,8.2,9.3,12.5,16.4,10.5c7.1,2,17.2-1.6,19-11.6c0.9-0.8,1.8-1.6,2.5-2.5c0.1,0,0.1,0,0.2,0.1    c5.5,0.9,10.3-1.4,13.9-5c1.6,1.3,3.9,1.7,5.8,1.1c1.7,0.8,3.7,0.9,5.6,0.6c0.3,0.2,0.5,0.5,0.8,0.7c1.7,0.9,3.7,1.6,5.8,2    c0.7,0.5,1.6,0.9,2.5,1.1c0.2,1.7,0.9,3.3,2.2,4.2c-3.1,5.9-4.2,12.8,1.9,17.3c5.5,4,12,1.2,14.4-4.2c0.1-0.1,0.1-0.2,0.2-0.3    C1404.4,189.5,1402.7,174.6,1396.3,163.8z"/>
		<path class="st1" d="M1387.3,188.2c-7.8,0.6-14.7,3.3-20.9,7.7c-1.2-2.6-3.4-4.6-6.6-5.7c-6.1-1.9-12.3,1.1-15.8,6.1    c-2-0.5-4-0.7-6-0.8c-0.9-5.4-6.5-9.5-12-9.2c-5.8,0.3-10.9,5.5-10.6,11.4c0.3,5.6,5.3,10.6,10.9,10.4c4.5-0.2,8.6-2.9,10.6-6.9    c1.9,0,3.7,0.2,5.5,0.6c0.5,5.6,5.1,11.1,10.6,12.3c6.3,1.4,11.8-3.2,13.7-9.1c0.3-1,0.5-1.9,0.6-2.9c5.7-4.9,12.3-7.7,19.9-8.3    C1391,193.7,1391,187.9,1387.3,188.2z M1321.2,198c-1.1-7.3,11.6-7.5,11.1-0.2C1331.6,203.4,1322.1,204.1,1321.2,198z     M1361.3,203.7c-3,8.4-13,4.2-12.9-3.3c1.5-2.6,3.8-4.5,6.9-4.8C1359.9,195.1,1362.9,199.2,1361.3,203.7z"/>
	</g>
	<g>
		<path class="st2" d="M1316.7,259c11.4,21,63.1,31.5,65.9-1c1-11.1-16.4-11.1-17.4,0c-0.5,5.4-14.7,2.4-17.4,1.9    c-6.5-1.4-12.8-3.5-16.2-9.7C1326.3,240.4,1311.3,249.2,1316.7,259L1316.7,259z"/>
	</g>
</g>
<g>
	<text transform="matrix(1 0 0 1 1081.6577 870.9561)"><tspan x="0" y="0" class="st0 st6 st7">Hi, lets play a game</tspan><tspan x="-58" y="72" class="st0 st6 st7">“Find the programmer”</tspan></text>
</g>
<text transform="matrix(1 -2.970000e-03 2.970000e-03 1 1473.9816 165.9804)" class="st4 st8 st9">Programmer</text>
<path class="st4" d="M1634.2,177c-5.7,10.9-11.9,20.8-21.2,29.1c-9.1,8.1-19.6,14.5-30,20.8c-15.9,9.6-32.3,20.1-43.2,35.3  c0-3.2-0.7-6.4-2.2-8.3c-0.6-0.7-2.1-0.4-2.2,0.6c-0.4,2.8,0.6,5.5,0.5,8.4c0,2.2-0.5,4.3-0.5,6.4c-0.2,0.4-0.4,0.8-0.6,1.1  c-1,1.9,1.1,4.2,3.1,3c7.1-4.1,14.1-5.2,21.7-7.4c2.3-0.6,1.7-3.9-0.5-4c-5.4-0.3-11.1,1.4-16.4,3.8c11.8-17.6,31.1-28.4,48.6-39.7  c18.3-11.8,38.1-26.6,44.2-48.6C1635.7,176.8,1634.6,176.3,1634.2,177z"/>
</svg>