<?xml version="1.0" encoding="utf-8"?>
<!-- Generator: Adobe Illustrator 22.0.1, SVG Export Plug-In . SVG Version: 6.00 Build 0)  -->
<svg version="1.1" id="Layer_1" xmlns="http://www.w3.org/2000/svg" xmlns:xlink="http://www.w3.org/1999/xlink" x="0px" y="0px"
	 viewBox="0 0 473.4 135.3" style="enable-background:new 0 0 473.4 135.3;" xml:space="preserve">
<style type="text/css">
	.logo-green{fill:#39E28D;}
	.logo-green-darker{fill:#47B877;}
	.logo-none{fill:none;}
	.logo-yellow{fill:#FFE800;}
	.logo-purple{fill:#7C00FF;}
</style>
<g>
	<path class="logo-green" d="M182.8,46.9h-13.2v14.3h-9.1v11.5h8.9v18c0,7.4,2.4,16.7,16.5,16.7c1.5,0,4.9-0.1,7.9-1V95.5
		c-2.4,0.3-2.7,0.3-4.7,0.3c-4.4,0-6.4-2.3-6.4-5.8V72.7H194V61.2h-11.3V46.9z"/>
	<path class="logo-green" d="M221.1,60.1c-13.2,0-24.2,10.7-24.2,23.8c0,14.2,11.2,23.9,25,23.9c9,0,17.4-4.7,20.4-13.5l-10.9-3.8
		c-1.5,3.8-5.8,6.1-9.7,6.1c-5.6,0-10.4-3.2-11.3-9h33.1c0.2-1.5,0.2-3.2,0.2-4.8C243.8,69.4,234.7,60.1,221.1,60.1z M210.9,78.9
		c0.5-3,3.9-7.9,9.9-7.9c6.7,0,9.5,4.6,9.7,7.9H210.9z"/>
	<path class="logo-green" d="M267.5,78.1c-4.9-0.5-7.1-1.3-7.1-4c0-2.1,2-3.8,5.2-3.8c3.8,0,6,2.3,6.7,5.4l11.5-2.9
		c-0.9-5.1-6.2-12.7-18-12.7c-9.7,0-18,6.3-18,14.6c0,10.3,7.9,13.2,16.5,14.4c4.8,0.7,7.3,1.5,7.3,4.4c0,1.7-1.5,3.9-5.5,3.9
		c-4.4,0-7-2.9-7.6-6.2l-11.6,3.1c0.8,4.9,5.8,13.5,19.2,13.5c12.5,0,18.5-7.3,18.5-15.1C284.6,82.2,276.3,79.1,267.5,78.1z"/>
	<path class="logo-green" d="M312.8,60.2c-13.8,0-25,10.3-25,23.9c0,13.8,11,23.7,24.9,23.7c13.8,0,24.9-10.3,24.9-24
		C337.5,70.2,326.5,60.2,312.8,60.2z M312.7,95.6c-6.2,0-11.3-4.8-11.3-11.7c0-6.8,5-11.6,11.2-11.6c6.2,0,11.3,4.8,11.3,11.6
		C323.9,90.8,318.9,95.6,312.7,95.6z"/>
	<path class="logo-green" d="M369.7,60.3c-1.8,0-9.4,0.7-12.9,6.8h-0.1v-6h-13.2v45.6h13.3V81.5c0-4.7,2.6-8.9,8.2-8.9
		c5.5,0,7.9,3.8,7.9,8.9v25.3h13.2V78.4C386.2,69.1,381.3,60.3,369.7,60.3z"/>
	<path class="logo-green" d="M415.8,60.1c-13.2,0-24.2,10.7-24.2,23.8c0,14.2,11.2,23.9,25,23.9c9,0,17.4-4.7,20.4-13.5l-10.9-3.8
		c-1.5,3.8-5.8,6.1-9.7,6.1c-5.6,0-10.4-3.2-11.3-9h33.1c0.2-1.5,0.2-3.2,0.2-4.8C438.5,69.4,429.4,60.1,415.8,60.1z M405.5,78.9
		c0.5-3,3.9-7.9,9.9-7.9c6.7,0,9.5,4.6,9.7,7.9H405.5z"/>
	<path class="logo-green" d="M473.4,72.7V61.2h-11.3V46.9H449v14.3H440v11.5h8.9v18c0,7.4,2.4,16.7,16.5,16.7c1.5,0,4.9-0.1,7.9-1V95.5
		c-2.4,0.3-2.7,0.3-4.7,0.3c-4.4,0-6.4-2.3-6.4-5.8V72.7H473.4z"/>
	<path class="logo-green-darker" d="M51.3,91v-4.2c-0.8,0.6-1.4,1.5-1.5,2.6c0,0.3,0.2,0.7,1.2,1.4c0,0,0,0,0,0C51.1,90.9,51.2,91,51.3,91z"/>
	<path class="logo-green" d="M70.2,52.2c-1.7-0.5-3.6-0.8-5.7-0.8c-0.7,0-2.4,0.1-4.4,0.7c-0.4,0.1-0.8,0.2-1.2,0.4
		c-0.2,0.1-0.4,0.1-0.6,0.2c-0.2,0.1-0.5,0.2-0.7,0.3c-0.3,0.1-0.6,0.3-0.9,0.4c-2,1-4,2.6-5.4,5h-0.1v-6.1h0H37.6h0V99h3.2l0,0
		c1.1-0.4,2-0.8,2-2.1c0.1-2.3-2.1-4.9,0.1-6.6c0.4-0.3,0.8-0.5,1.3-0.6c0.4-0.1,0.8-0.2,1.3-0.3c0,0,0,0,0,0s0,0,0.1,0
		c0.1,0,0.3,0,0.4,0c0.5-0.1,1.1-0.2,1.5-0.3c1.5-1,2.8-2.2,3.8-3.5V73.1c0-3.9,1.7-7.5,5.5-8.7c0.9-0.3,1.8-0.4,2.9-0.4
		c0,0,0,0,0,0c0.2,0,0.4,0,0.6,0c0.1,0,0.1,0,0.2,0c0.2,0,0.3,0,0.5,0c0.1,0,0.1,0,0.1,0c0.4,0.1,0.8,0.1,1.1,0.2c0,0,0.1,0,0.1,0
		c0.2,0,0.3,0.1,0.5,0.1c0,0,0,0,0.1,0c0.4,0.1,0.7,0.3,1,0.4c0,0,0,0,0,0c0.2,0.1,0.3,0.2,0.4,0.3l0,0c1.5,0.8,2.8,0.6,3.2-0.6
		c0.5-1.4,1-2.5,1.7-3.1c0.7-0.6,1.3-0.6,1.7,0c0.4,0.7-0.6,1.2-1.5,1.6c-0.9,0.4-1.6,1.1-1.6,3c0,2,0,7,0,7V88c1-0.8,2.2-1,3.3,0
		c3.8,2.4,6,7,10.6,7.9h0c0-0.2-0.1-0.4-0.1-0.6c-0.2-1.4-0.3-2.9-0.3-4.7v0V70c0-2-0.2-4-0.7-5.9C76.3,61.5,72.6,57.4,70.2,52.2z"
		/>
	<path class="logo-green" d="M12.6,94c-0.7-1.1-1.3-2.5-1.5-4c-2.8,1.5-6,2-9.2,1.7c2.1,8.2,6,15.6,11.1,22C17.1,108.4,18.1,102.2,12.6,94z
		"/>
	<path class="logo-green" d="M111.2,104.4c0.3-0.7,0.7-1.3,1-2c0.1-0.3,0.2-0.5,0.4-0.8c0.2-0.6,0.5-1.1,0.7-1.7c0.2-0.6,0.4-1.2,0.6-1.9
		c0.2-0.6,0.4-1.3,0.6-2c0.2-0.7,0.3-1.4,0.5-2.1c0.9-4.1,1.4-8.8,1.6-14.3c-0.9,0.8-1.8,1.7-2.7,2.5c-1.2,0.9-2.5,1.7-3.9,2.3
		c-2.3,1.1-4.7,1.6-7.2,1.7c-0.1,0.9-0.2,1.8-0.3,2.6c-0.1,0.4-0.1,0.8-0.2,1.2c-0.1,0.8-0.2,1.5-0.4,2.3c-0.1,0.6-0.3,1.2-0.4,1.8
		c0,0.2-0.1,0.3-0.1,0.5c-0.3,1-0.6,1.9-0.9,2.7c-0.1,0.3-0.3,0.6-0.4,0.9c-0.1,0.3-0.3,0.6-0.5,0.9c-0.4,0.7-0.8,1.3-1.2,1.8l0,0
		c-0.1,1.9,0,3.6-0.9,5.3c-0.8,1.4-1.2,2.7-2.2,3.8c-2.2,2.6-4.6,4.9-7.9,6.2c-0.5,0.2-0.9,0.4-1.4,0.6l0,0c1.4,0.2,2.8,0.4,4.3,0.4
		C97.7,117,106,114.1,111.2,104.4z"/>
	<path class="logo-green" d="M104.2,61c-0.8,0.9-1.8,1.7-2.9,2.4c-0.1,0.1-0.2,0.1-0.3,0.2c0.9,2.9,1.5,5.8,1.8,8.8c2,0,3.6-1.6,4.2-4
		c1.3-5.2,0.7-12.1,4.5-15.4h0c-0.5-1.1-1.1-2.3-1.7-3.4c-0.6-1.1-1.2-2.2-1.9-3.3c-0.2-0.3-0.4-0.6-0.6-0.9c-1.5-2.3-3.2-4.6-5-6.7
		l0,0c-1.7,1.4-2.9,3.1-2.2,5.6C101.2,50.3,108.6,55.3,104.2,61z"/>
	<path class="logo-green" d="M7.8,53.2c2.3,1.6,4,4.7,2.7,7.5c-0.2,0.7-0.5,1.5-0.9,2.3c-1.2,2.7-3.2,5.7-0.6,8c1.2,1.2,3,2,4.6,2.9h0
		c0.4-5.8,1.9-11.3,4.3-16.2c0.2-0.3,0.3-0.7,0.5-1c0.2-0.4,0.4-0.8,0.6-1.2c0.3-0.5,0.5-0.9,0.8-1.4C27.4,41.5,40.9,33,56.5,32.3
		c0,0,0,0,0,0c6.1-1,9.6-7,13-10.7c0.3-0.4,0.8-0.9,1.3-1.5l0,0c-4.1-0.9-8.3-1.4-12.6-1.4c-15.1,0-28.8,5.7-39.1,15.2
		c-0.7,0.6-1.4,1.3-2,1.9c0,0,0,0,0,0c-2.5,2.5-4.8,5.3-6.9,8.3c-0.1,0.2-0.3,0.4-0.4,0.6c-0.5,0.8-1.1,1.7-1.6,2.5
		c-0.4,0.6-0.7,1.2-1,1.8c-0.3,0.5-0.5,1-0.8,1.4c-0.2,0.5-0.5,1-0.7,1.5h0C6.4,52.3,7.1,52.7,7.8,53.2z"/>
	<path class="logo-none" d="M17.1,35.8C17.1,35.8,17.1,35.8,17.1,35.8C17.1,35.8,17.1,35.8,17.1,35.8z"/>
	<path class="logo-none" d="M102.7,72.5L102.7,72.5c-0.3-3-0.9-6-1.8-8.8l0,0C101.8,66.5,102.4,69.5,102.7,72.5z"/>
	<path class="logo-none" d="M107.3,45.6c0.2,0.3,0.4,0.6,0.6,0.9C107.7,46.1,107.5,45.8,107.3,45.6z"/>
	<path class="logo-none" d="M56.5,32.3L56.5,32.3C40.9,33,27.4,41.5,19.9,54.1C27.4,41.5,40.9,33,56.5,32.3z"/>
	<path class="logo-none" d="M56.7,64.4c0.9-0.3,1.8-0.4,2.9-0.4c0,0,0,0,0,0c0,0,0,0,0,0C58.6,64,57.6,64.2,56.7,64.4z"/>
	<path class="logo-none" d="M58.2,52.7c0.2-0.1,0.4-0.2,0.6-0.2C58.6,52.5,58.4,52.6,58.2,52.7z"/>
	<path class="logo-none" d="M62.3,64.3C62.3,64.3,62.2,64.3,62.3,64.3C62.2,64.3,62.3,64.3,62.3,64.3z"/>
	<path class="logo-none" d="M63.8,65C63.8,64.9,63.8,64.9,63.8,65C63.8,64.9,63.8,64.9,63.8,65z"/>
	<path class="logo-none" d="M62.8,64.5C62.8,64.5,62.8,64.5,62.8,64.5C62.8,64.5,62.8,64.5,62.8,64.5z"/>
	<path class="logo-none" d="M61.1,64.1c0,0-0.1,0-0.1,0C61,64.1,61,64.1,61.1,64.1z"/>
	<path class="logo-none" d="M60.5,64c-0.1,0-0.1,0-0.2,0C60.3,64,60.4,64,60.5,64z"/>
	<polygon class="logo-none" points="51.3,91 51.3,91 51.3,86.8 51.3,86.8 	"/>
	<path class="logo-none" d="M18.5,56.7c0.2-0.4,0.4-0.8,0.6-1.2C18.9,55.9,18.7,56.3,18.5,56.7z"/>
	<path class="logo-none" d="M70.2,52.2L70.2,52.2c-1.7-0.5-3.6-0.8-5.7-0.8c-0.7,0-2.4,0.1-4.4,0.7c2-0.5,3.7-0.7,4.4-0.7
		C66.6,51.4,68.5,51.7,70.2,52.2z"/>
	<path class="logo-none" d="M81.4,70L81.4,70c0-2-0.2-4-0.7-5.9h0C81.2,65.9,81.4,67.9,81.4,70z"/>
	<path class="logo-none" d="M51.3,73.1v12.5l0,0L51.3,73.1c0-3.9,1.7-7.5,5.5-8.7C53,65.6,51.3,69.2,51.3,73.1z"/>
	<path class="logo-none" d="M81.7,95.3c-0.2-1.4-0.3-2.9-0.3-4.7v0C81.4,92.4,81.5,94,81.7,95.3z"/>
	<path class="logo-none" d="M114.9,93.8c-0.2,0.7-0.3,1.4-0.5,2.1C114.6,95.3,114.8,94.6,114.9,93.8z"/>
	<path class="logo-none" d="M114.4,95.9c-0.2,0.7-0.4,1.3-0.6,2C114.1,97.3,114.2,96.6,114.4,95.9z"/>
	<path class="logo-none" d="M114.9,93.8c0.9-4.1,1.4-8.8,1.6-14.3l0,0C116.4,85,115.8,89.8,114.9,93.8z"/>
	<polygon class="logo-none" points="76.7,132.3 76.7,132.3 75,127.2 75,127.2 	"/>
	<path class="logo-none" d="M1.9,91.6L1.9,91.6c2.1,8.2,6,15.6,11.1,22v0C7.8,107.3,4,99.8,1.9,91.6z"/>
	<g>
		<path class="logo-yellow" d="M141.2,39.6c-2-2.5-5.2-1.8-7.6-0.3c-5,3-4.5,10.6-9.4,13.7c-0.3,0.2-0.5,0.3-0.8,0.5
			c-0.8,0.5-1.6,0.9-2.4,1.3c-3.7,1.8-7.4,2.5-9.4-1.4l0,0c0-0.1-0.1-0.2-0.1-0.3c-1.9,1.7-2.7,4.2-3.2,7c-0.5,2.8-0.6,5.8-1.3,8.4
			c-0.6,2.3-2.2,3.9-4.2,4c0.1,1.5,0.2,3,0.2,4.5c0,0,0,0,0,0c0,2.1,0,4-0.1,5.9c-0.1,1.1-0.1,2.1-0.2,3.1c2.5-0.1,4.9-0.7,7.2-1.7
			c1.4-0.6,2.7-1.4,3.9-2.3c0.9-0.8,1.8-1.6,2.7-2.5c0-0.8,0-1.6,0-2.5c0,0,0,0,0,0c0,0,0,0,0,0c0-1,0-2.1-0.1-3.1c0,0,0,0,0,0.1
			c-0.1-6.8,2.3-14.3,5.6-18.1c0.7-0.8,1.4-1.4,2.1-1.8c4.6-2.6,8.9-2,14.1-5.7C141.7,45.9,143,42,141.2,39.6z"/>
		<path class="logo-yellow" d="M95.1,103.3c-1.2,0.5-2.6,0.8-4.1,0.8c-4,0-6.6-1.4-8-4.5c-0.1-0.2-0.2-0.4-0.3-0.6c-0.2-0.5-0.4-1.1-0.6-1.7
			c-0.1-0.2-0.1-0.5-0.2-0.7c0-0.2-0.1-0.4-0.1-0.6c-2.3-0.4-4-1.8-5.6-3.4c-1.6-1.6-3.1-3.3-5-4.5c-1.1-1-2.4-0.8-3.3,0v2.7
			c0,3.4,0.4,6.5,1.1,9.3c0,0.1,0.1,0.3,0.1,0.4c0.4,1.5,0.9,2.9,1.5,4.2c0.2,0.6,0.5,1.1,0.8,1.6c0.1,0.1,0.1,0.2,0.2,0.4
			c0.4,0.6,0.7,1.2,1.2,1.8c0.4,0.5,0.8,1.1,1.2,1.6c0,0.1,0.1,0.1,0.1,0.2c0.2,0.2,0.4,0.4,0.6,0.6c0.6,0.6,1.2,1.1,1.8,1.7
			c0.3,0.2,0.6,0.5,0.9,0.7c0.3,0.2,0.6,0.4,0.9,0.6c2.3,1.4,4.8,2.4,7.7,2.9c0.5-0.2,0.9-0.4,1.4-0.6c3.3-1.4,5.7-3.6,7.9-6.2
			c0.9-1.1,1.6-2.2,2.3-3.6c0.9-1.7,0.7-3.5,0.8-5.4C97.4,101.9,96.3,102.8,95.1,103.3z"/>
		<path class="logo-yellow" d="M55.6,80.7c-1.2-0.5-2.3,0.6-2.6,1.6c-0.4,1.2-1,2.3-1.7,3.3c-0.3,0.3-0.5,0.7-0.8,1c-1.6,1.5-2.3,2-3,2.5
			c-0.3,0.2-1,0.3-1.5,0.3c-0.1,0-0.3,0-0.4,0c0,0-0.1,0-0.1,0c-0.4,0.1-0.8,0.2-1.3,0.3c-0.5,0.1-0.9,0.3-1.3,0.6
			c-2.2,1.7,0,4.3-0.1,6.5c0,1.2-0.9,1.7-2,2.1h10.5v-8c-0.1-0.1-0.2-0.1-0.3-0.2c0,0,0,0,0,0c-0.9-0.7-1.2-1.1-1.2-1.4
			c0.1-1,0.6-1.8,1.3-2.5c0,0,0.1-0.1,0.1-0.1c0.2-0.2,0.5-0.4,0.8-0.6c1.7-1.1,4.1-1.4,4.5-3.6c0.1-0.4,0.1-0.7-0.1-1
			C56.4,81.3,56.1,81,55.6,80.7z"/>
		<path class="logo-yellow" d="M13.7,73.9C12,73.1,10.2,72.3,9,71c-2.5-2.3-0.6-5.3,0.6-8c0.4-0.8,0.7-1.6,0.9-2.3c1.3-2.8-0.4-6-2.7-7.5
			c-0.7-0.5-1.4-0.9-2.1-1.3c-0.4,0.8-0.7,1.6-1.1,2.4c-0.3,0.8-0.7,1.6-1,2.4c-0.1,0.2-0.2,0.5-0.3,0.7c-0.5,1.5-1,3.1-1.5,4.7
			c-0.2,0.8-0.4,1.6-0.6,2.4c-0.4,1.6-0.6,3.3-0.9,4.9c-0.1,0.8-0.2,1.7-0.3,2.5C0.1,73.6,0,75.3,0,77c0,1.9,0.1,3.8,0.3,5.6
			c0.2,1.8,0.4,3.7,0.8,5.5c0.2,1.2,0.5,2.4,0.8,3.5c3.2,0.4,6.4-0.2,9.2-1.7c-0.3-2.2,0.3-4.6,2.5-6.2c0.1-0.1,0.3-0.2,0.4-0.2
			c-0.3-2.1-0.5-4.3-0.5-6.5C13.6,76,13.6,74.9,13.7,73.9z"/>
	</g>
	<g>
		<path class="logo-purple" d="M70.2,52.2c2.4,5.2,6.1,9.3,10.5,11.9c-0.1-0.3-0.2-0.7-0.3-1C78.9,58,75.6,53.9,70.2,52.2z"/>
		<path class="logo-purple" d="M92.6,13c3.6-2.5,8.3-3.3,12.2-4.2c3.7-0.8,7.8-3.4,6.7-6.7c-0.8-2.3-5.8-3.1-10.6-0.2
			c-4.3,2.5-7.5,9.4-10,10.7c-3.1,1.6-8.3,1.1-12.6,3c-3.7,1.7-6,3.3-7.4,4.6c-0.6,0.5-1,1-1.3,1.5c-3.4,3.7-6.9,9.7-13,10.7
			c0,0,0,0,0,0c0.6,0,1.2,0,1.8,0c12,0,23.2,4.7,31.7,13.2c5.2,5.2,8.9,11.4,11,18.2c0.1-0.1,0.2-0.1,0.3-0.2
			c1.1-0.7,2.1-1.5,2.9-2.4c4.4-5.8-3-10.8-4.1-16.6c-0.7-2.5,0.5-4.2,2.2-5.6c-0.9-1-1.8-2-2.8-3c-4.6-4.6-9.8-8.3-15.4-11.1v0
			c-1.9-0.9-2.1-2.1-1.4-3.5C84.2,18.3,90.1,14.7,92.6,13z"/>
		<path class="logo-purple" d="M44.6,119.6c-1.1-0.4-2.3-0.8-3.4-1.2c-1-0.4-1.9-0.8-2.9-1.3c-0.3-0.2-0.6-0.3-0.9-0.5
			c-0.7-0.4-1.3-0.7-2-1.1c-0.5-0.3-1.1-0.7-1.6-1c-0.7-0.4-1.3-0.9-2-1.4c-0.6-0.4-1.2-0.9-1.8-1.4c-0.2-0.2-0.4-0.3-0.6-0.5
			c-1.9-1.6-4.7-4.7-5.1-5.1c0,0,0,0,0,0c0,0,0,0,0,0c-0.2-0.3-1.5-2,1.3-5.4c0.1-0.1,0.1-0.2,0.2-0.2c0.5-0.6,1.2-1.1,2-1.7
			c1.1-0.9,2.3-1.9,3.3-3.1c1.9-2.5,2.4-6.6,0.9-7.6c-2.9-2.1-4.9,0.7-5.5,2.7c-0.6,2.1,0.1,4.2,0,6.3c-0.1,1-0.3,1.9-0.9,2.8
			c-0.1,0.2-0.3,0.4-0.5,0.6c-1.8,1.9-4.3,1.1-5.7-1.1c-0.3-0.5-0.5-0.9-0.8-1.4c0,0,0,0,0,0c-1.8-3.3-3.1-6.9-4-10.6
			c-0.3-1.2-0.5-2.4-0.7-3.7c-0.2,0.1-0.3,0.1-0.4,0.2c-2.2,1.6-2.8,3.9-2.5,6.2c0.2,1.5,0.8,2.9,1.5,4c5.5,8.2,4.5,14.5,0.4,19.7
			c0.4,0.5,0.8,1,1.2,1.5c0.6,0.7,1.2,1.4,1.9,2.1c0.6,0.7,1.3,1.3,2,2c0.7,0.6,1.4,1.3,2.1,1.9c0.4,0.3,0.7,0.6,1.1,0.9
			c0.4,0.3,0.7,0.6,1.1,0.9c0.7,0.6,1.5,1.1,2.2,1.7c0.4,0.3,0.8,0.5,1.2,0.8c1.5,1,3.2,2,4.8,2.9c0.6,0.3,1.2,0.7,1.9,1
			c0.4,0.2,0.8,0.4,1.2,0.6c0.7,0.3,1.3,0.6,2,0.9c0.6,0.3,1.2,0.5,1.8,0.7c0.7,0.3,1.5,0.5,2.2,0.8c0.6-0.5,1.2-1,1.8-1.5
			c1.4-1.3,2.7-2.8,3.8-4.4s2.1-3.3,2.9-5.1c0.1-0.2,0.2-0.4,0.3-0.6c-0.7-0.2-1.4-0.3-2-0.5C45.8,119.9,45.2,119.8,44.6,119.6z"/>
	</g>
	<path class="logo-none" d="M48.3,120.6L48.3,120.6c3.2,0.7,6.5,1.1,9.9,1.1c2.9,0,5.9-0.3,8.8-0.9l0,0c-2.9,0.6-5.8,0.9-8.8,0.9
		C54.8,121.7,51.5,121.3,48.3,120.6z"/>
	<path class="logo-green" d="M78.2,113.7c0.4-0.2,1.1-0.2,1.2-0.9c0.1-0.4-0.1-1-0.8-1.3c-0.9-0.4-1.7,0.2-2.3,0.9
		c-0.2,0.2-0.3,0.5-0.4,0.7c-0.5,1.5-1.7,3.3-3.3,4.8c-1.5,1.4-3.5,2.5-5.6,2.9l0,0c-2.9,0.6-5.8,0.9-8.8,0.9
		c-3.4,0-6.7-0.4-9.9-1.1c-0.1,0.2-0.2,0.4-0.3,0.6c-0.8,1.7-1.7,3.4-2.9,5.1c-1.1,1.6-2.4,3.1-3.8,4.4c-0.6,0.5-1.2,1.1-1.8,1.5
		l0,0c1.7,0.6,3.4,1.1,5.2,1.5c0.7,0.2,1.3,0.3,2,0.4c1.9,0.4,3.7,0.7,5.6,0.8c1.9,0.2,3.8,0.3,5.8,0.3c6.2,0,12.4-1,18.4-3l0,0
		l-1.7-5.1l0,0v0c-1.4-5.8-1.7-8-1.7-8.4c0-0.4,0.1-0.6,0.2-0.8c0.3-0.5,0.8-0.5,1.6-1c2.4-1.4,2.2-1.3,2.7-2.9
		C77.8,113.9,78,113.8,78.2,113.7"/>
	<g>
		<path class="logo-green-darker" d="M75.3,21.3c1.5-1.2,3.2-1.2,4.1-0.2c0.6,0.6,0.8,1.3,0.7,1.9c-0.1,1.1-1,2.1-2.1,2.7c-0.1,0-0.1,0.1-0.2,0.1
			c-2.6,1.5-3.3,0.3-5.2,3.2c-1.8,2.8,0.4,4.3,0.4,5.8c-3.1-1-5.4-1.6-8.6-2.1c0-0.9,1.5-1.7,2.9-2c1.5-0.3,3.3,0.5,4.4-1.4
			c0.6-1,0.7-2.4,1.1-4c0.2-0.8,0.5-1.7,1.1-2.5C74.4,22.2,74.8,21.7,75.3,21.3z"/>
	</g>
</g>
</svg>
